# xmcd
#
# Track frame offsets:
#	150
#	20015
#	39192
#	59410
#	79295
#	102927
#	123880
#	141902
#	159805
#	177767
#	199220
#	221822
#
# Disc length: 3261 seconds
#
# Revision: 2
# Processed by: cddbd v1.5PL3 Copyright (c) Steve Scherf et al.
# Submitted via: dBpowerAMP V4.0
#
DISCID=a20cbb0c
DTITLE=2 Pac - Greatest Hits - Disc 1
DYEAR=1998
DGENRE=Rap
TTITLE0=Keep Ya Head Up
TTITLE1=2 of Amerikaz Most Wanted
TTITLE2=Temptations
TTITLE3=God Bless the Dead
TTITLE4=Hail Mary
TTITLE5=Me Against the World
TTITLE6=How Do You Want It
TTITLE7=So Many Tears
TTITLE8=Unconditional Love
TTITLE9=Trapped
TTITLE10=Life Goes On
TTITLE11=Hit 'Em Up
EXTD=
EXTT0=
EXTT1=
EXTT2=
EXTT3=
EXTT4=
EXTT5=
EXTT6=
EXTT7=
EXTT8=
EXTT9=
EXTT10=
EXTT11=
PLAYORDER=
